<?xml version="1.0" standalone="no"?>
<!DOCTYPE svg PUBLIC "-//W3C//DTD SVG 20010904//EN"
 "http://www.w3.org/TR/2001/REC-SVG-20010904/DTD/svg10.dtd">
<svg version="1.0" xmlns="http://www.w3.org/2000/svg"
 width="147.000000pt" height="77.000000pt" viewBox="0 0 147.000000 77.000000"
 preserveAspectRatio="xMidYMid meet">

<g transform="translate(0.000000,77.000000) scale(0.100000,-0.100000)"
fill="#000000" stroke="none">
<path d="M686 658 c5 -8 -3 -9 -29 -5 -37 6 -60 -6 -32 -17 8 -3 15 -12 15
-21 0 -13 -5 -12 -29 6 -36 27 -82 19 -111 -19 -24 -30 -20 -66 11 -95 10 -10
22 -36 25 -58 8 -47 18 -56 40 -35 22 22 156 22 178 0 22 -21 32 -11 39 38 3
23 13 47 21 53 30 22 36 60 16 93 -26 42 -72 51 -111 23 -23 -17 -29 -18 -29
-7 0 8 5 18 10 21 15 9 12 22 -6 29 -10 4 -13 2 -8 -6z m-63 -90 c11 -9 16
-21 12 -27 -3 -6 -1 -11 4 -11 6 0 11 -7 11 -16 0 -9 -7 -14 -17 -12 -11 2
-17 11 -15 21 2 10 -3 17 -12 17 -9 0 -12 -7 -9 -19 4 -15 -2 -19 -31 -23 -29
-3 -36 -1 -36 13 0 10 -6 20 -12 22 -10 4 -9 8 2 16 12 8 12 11 1 11 -19 0 6
29 34 40 20 8 30 3 68 -32z m57 32 c0 -5 -7 -10 -15 -10 -8 0 -15 5 -15 10 0
6 7 10 15 10 8 0 15 -4 15 -10z m125 -20 c10 -11 13 -20 8 -20 -6 0 -11 -6
-10 -12 1 -42 -3 -48 -38 -48 -28 0 -35 4 -35 20 0 11 -5 20 -11 20 -6 0 -8
-7 -5 -15 7 -19 -21 -32 -36 -17 -8 8 -7 13 5 18 9 3 14 11 11 16 -9 14 45 58
71 58 12 0 30 -9 40 -20z"/>
<path d="M545 520 c4 -6 11 -8 16 -5 14 9 11 15 -7 15 -8 0 -12 -5 -9 -10z"/>
<path d="M765 520 c4 -6 11 -8 16 -5 14 9 11 15 -7 15 -8 0 -12 -5 -9 -10z"/>
<path d="M1381 454 c0 -11 3 -14 6 -6 3 7 2 16 -1 19 -3 4 -6 -2 -5 -13z"/>
<path d="M216 437 c2 -7 -4 -21 -15 -31 -11 -10 -29 -42 -41 -72 -12 -30 -27
-54 -32 -54 -5 0 -6 -4 -3 -10 9 -15 -13 -48 -43 -64 -23 -13 -24 -15 -7 -16
39 0 124 78 125 116 0 25 29 114 43 132 7 9 4 12 -11 12 -14 0 -20 -5 -16 -13z"/>
<path d="M1272 419 c-9 -17 -33 -58 -52 -91 -27 -45 -35 -68 -32 -94 4 -32 22
-49 22 -20 0 8 23 62 50 121 55 119 54 115 40 115 -6 0 -19 -14 -28 -31z"/>
<path d="M124 396 c-26 -26 -34 -42 -33 -67 l0 -34 20 45 c11 25 30 55 41 68
34 35 9 25 -28 -12z"/>
<path d="M1005 400 c-8 -13 4 -32 16 -25 12 8 12 35 0 35 -6 0 -13 -4 -16 -10z"/>
<path d="M593 393 c9 -2 25 -2 35 0 9 3 1 5 -18 5 -19 0 -27 -2 -17 -5z"/>
<path d="M713 393 c9 -2 23 -2 30 0 6 3 -1 5 -18 5 -16 0 -22 -2 -12 -5z"/>
<path d="M549 318 c-55 -72 -56 -73 -40 -64 19 12 7 -24 -32 -96 -29 -54 -32
-79 -7 -63 5 3 22 30 36 58 15 29 36 66 49 82 12 17 24 44 27 60 3 17 9 38 13
48 14 32 -13 18 -46 -25z"/>
<path d="M820 288 l-21 -43 21 28 c31 39 42 33 24 -13 -16 -40 -14 -70 6 -70
6 0 9 4 6 8 -2 4 3 26 13 47 16 36 16 43 3 63 -20 31 -29 28 -52 -20z"/>
<path d="M265 310 c-3 -5 -1 -10 5 -10 5 0 -1 -22 -15 -50 -29 -58 -30 -60
-10 -60 8 0 28 21 44 46 27 43 27 48 13 65 -18 21 -28 24 -37 9z"/>
<path d="M360 305 c0 -9 -9 -33 -20 -55 -24 -46 -25 -60 -6 -60 8 0 26 21 40
46 21 38 23 49 13 65 -14 23 -27 25 -27 4z"/>
<path d="M450 306 c0 -8 -7 -31 -16 -50 -10 -20 -14 -42 -10 -53 6 -15 10 -11
23 22 23 61 26 82 14 89 -6 4 -11 0 -11 -8z"/>
<path d="M941 294 c-14 -18 -19 -35 -15 -53 9 -43 13 -51 23 -51 6 0 8 6 5 14
-3 8 4 32 15 55 12 22 21 45 21 51 0 19 -29 10 -49 -16z"/>
<path d="M1122 308 c-7 -7 -12 -18 -12 -25 0 -8 -7 -27 -15 -43 -13 -25 -13
-29 1 -34 22 -9 24 -8 24 9 0 9 9 33 20 55 11 22 20 42 20 45 0 10 -26 5 -38
-7z"/>
<path d="M618 279 c-18 -31 -25 -89 -10 -89 7 0 27 51 39 98 8 32 -9 27 -29
-9z"/>
<path d="M701 275 c-26 -31 -29 -38 -19 -55 15 -23 39 -35 32 -16 -3 7 2 33
10 57 8 24 14 45 12 46 -2 2 -17 -12 -35 -32z"/>
<path d="M781 294 c0 -11 3 -14 6 -6 3 7 2 16 -1 19 -3 4 -6 -2 -5 -13z"/>
<path d="M1026 277 c-29 -38 -31 -48 -15 -64 9 -9 18 1 35 35 13 26 24 50 24
55 0 17 -21 5 -44 -26z"/>
<path d="M17 263 c-4 -3 -7 -17 -7 -30 l0 -23 20 20 c11 11 20 25 20 30 0 11
-23 14 -33 3z"/>
</g>
</svg>
